<?xml version="1.0" standalone="no"?>
<svg viewBox="0 0 200 200" xmlns="http://www.w3.org/2000/svg">
  <path fill="#003D76" d="M31.2,-41.9C43.3,-40.9,57.9,-37,64.4,-27.9C71,-18.8,69.6,-4.5,68.2,10.3C66.8,25,65.4,40.2,57,48.8C48.7,57.3,33.3,59.2,18.4,64.2C3.5,69.3,-10.8,77.6,-25.6,77.6C-40.3,77.6,-55.4,69.4,-60.8,56.4C-66.2,43.5,-61.9,25.9,-63.7,9.5C-65.5,-6.9,-73.4,-22,-69.1,-31.5C-64.7,-41.1,-48.1,-45,-34.5,-45.4C-21,-45.7,-10.5,-42.5,-0.4,-41.8C9.6,-41.1,19.2,-43,31.2,-41.9Z" transform="translate(100 100)" />
</svg>
