<?xml version="1.0" standalone="no"?>
<svg viewBox="0 0 200 200" xmlns="http://www.w3.org/2000/svg">
  <path fill="#003D76" d="M30.8,-48.1C37.3,-37.7,38.1,-25.2,44.1,-12.9C50,-0.6,61,11.4,62.9,25.1C64.9,38.8,57.7,54.1,45.7,64.6C33.7,75.1,16.8,80.7,1.5,78.7C-13.9,76.7,-27.8,67.1,-38.4,56.1C-49,45.2,-56.2,32.9,-64.4,18.4C-72.5,3.9,-81.6,-12.8,-78.6,-26.6C-75.6,-40.5,-60.5,-51.6,-45.4,-59.2C-30.3,-66.9,-15.2,-71.2,-1.5,-69.1C12.1,-67,24.3,-58.6,30.8,-48.1Z" transform="translate(100 100)" />
</svg>
